Patient4_TMGait_0pt8_01_right_35_EMG.mot
version=1
nRows=27
nColumns=33
inDegrees=no
endheader
time	1LAddLong	2LGlutMax	3LGlutMed	4LIliopsoas	5LSemiMemb	6LBicFemLong	7LRecFem	8LVastMed	9LVastLat	10LGasMed	11LTibAnt	12lTibPost	13LPeroneusLong	14LSol	15LExtDigLong	16LFlexDigLong	17RAddLong	18RGlutMax	19RGlutMed	20RIliopsoas	21RSemiMemb	22RBicFemLong	23RRecFem	24RVastMed	25RVastLat	26RGasMed	27RTibAnt	28RTibPost	29RPeroneusLong	30RSol	31RExtDigLong	32RFlexDigLong
39.587	-0.019073	-0.24902	-0.21729	0.01358	0.005646	-0.016937	0.53421	0.020599	-0.10376	-0.072632	0.11292	0.006866	-0.030975	0.20416	0.2034	0.002899	-0.038452	-0.27161	0.28366	-0.030975	-0.81329	0.068817	-0.055542	-0.12299	-0.13001	-0.10498	-0.10803	-0.35217	-0.22934	-0.44723	-0.001831	-0.014801
39.588	-0.013885	-0.24979	-0.21149	0.01297	0.006714	-0.007019	0.4718	0.022583	-0.16602	-0.098419	0.075836	0.008545	0.015717	0.26321	-0.7547	0.013428	-0.025177	-0.38788	-0.045624	-0.033417	-0.18372	-0.042725	0.25207	-0.12436	-0.19943	-0.078583	-0.12497	0.011444	0.19989	-0.43976	-0.001373	-0.019379
39.589	0.010223	-0.17548	-0.25543	0.005341	0.003967	-0.014343	0.40375	0.027161	-0.14297	-0.075684	0.017395	0.004883	-0.050049	0.27298	-0.73639	0.003204	-0.012207	-0.35095	-0.2301	-0.049438	0.42816	0.066223	0.41351	-0.019989	-0.085297	-0.070038	-0.082855	-0.2504	1.0576	0.33798	0.000763	-0.01236
39.59	-0.004425	-0.15778	-0.28442	0.014343	-0.002441	-0.030212	0.27893	0.025635	-0.11871	-0.040894	-0.13184	0.004425	-0.06897	0.14679	-0.78095	-0.023804	-0.00885	-0.24551	-0.63675	-0.053558	0.11963	0.27741	0.41138	0.10346	0.4982	-0.031433	-0.046387	0.24735	1.2054	0.39246	-0.00061	-0.020905
39.591	-0.000763	-0.11246	-0.2269	-0.004272	-0.004272	-0.033264	0.26337	0.014954	-0.084686	-0.036316	-0.1886	0.002899	-0.045319	0.051422	-0.42602	-0.017548	-0.023651	-0.11704	-0.71243	0.013275	-0.27969	0.19623	0.50934	0.0354	0.88486	-0.03418	0.02121	0.054169	0.2417	0.004578	0	-0.028992
39.592	-0.003662	-0.042267	-0.2269	-0.011597	0.005188	-0.036774	0.37064	0.016632	-0.084839	-0.00946	-0.13947	-0.005798	-0.083618	0.011292	0.51895	-0.008698	-0.019226	0.003052	-0.73914	-0.033875	-0.24765	0.036316	0.61951	0.053864	0.97443	-0.020447	-0.028381	0.054169	0.23773	-0.66071	-0.00061	-0.029907
39.593	-0.007629	-0.037231	-0.25436	-0.004272	0.00351	-0.036621	0.439	0.016632	-0.076141	-0.007629	-0.12283	-0.005493	-0.12833	0.061646	-0.25742	-0.001831	-0.032959	0.059357	-1.0461	-0.09201	0.039673	0.055237	0.62012	0.13245	0.47058	0	-0.080109	-0.094299	0.048828	-0.76996	-0.001221	-0.027161
39.594	0.000458	-0.057068	-0.25269	0.003967	0.002899	-0.046539	0.41779	0.0177	-0.073395	-0.00824	-0.11093	-0.000305	-0.11322	0.097504	-0.31296	0.00946	-0.024567	0.14008	-1.0321	-0.063324	0.25757	0.009308	0.58289	0.1239	0.062866	0.01297	-0.072632	0.017853	1.0454	0.52551	0.000153	-0.022125
39.595	0.002441	-0.085754	-0.26977	-0.002441	0.000458	-0.045471	0.45105	0.009918	-0.065613	-0.047913	-0.02182	-0.005646	-0.00351	0.056152	-0.31723	-0.00473	-0.032043	0.14358	-0.97031	-0.001678	0.36118	0.016174	0.58945	0.068054	-0.17654	0.019379	-0.010681	0.096283	1.2112	1.0129	-0.001221	-0.022736
39.596	-0.008087	-0.076447	-0.31265	0.012817	0.007629	-0.039368	0.53116	0.013733	-0.061951	-0.035248	-0.034485	-0.000916	0.058136	0.045776	-0.22018	0.000458	-0.041656	0.21744	-0.63416	-0.001831	0.38284	-0.066376	0.86563	0.15839	-0.448	0.028839	0.076599	0.028687	0.43533	0.56366	-0.003052	-0.018311
39.597	-0.008698	-0.062408	-0.34973	0.036926	0.001221	-0.050201	0.55893	0.015411	-0.055389	-0.00946	0.039063	-0.000916	-0.027771	0.067749	-0.015564	-0.025482	-0.036926	0.30624	-0.93063	-0.014191	0.31311	-0.28122	1.0547	0.19257	-0.49896	0.007782	0.10147	-0.012817	0.11246	0.17456	0.00061	-0.024109
39.598	-0.003815	-0.064697	-0.31525	0.026245	0.005188	-0.053864	0.58227	0.009918	-0.050201	-0.00351	-0.38528	-0.007324	-0.049744	0.087128	0.10086	-0.016174	-0.035706	0.37872	-1.1484	-0.003815	0.2475	-0.44281	0.93567	0.080719	-0.63019	-0.002136	0.20142	-0.075226	-0.82031	-0.063019	-0.000458	-0.023651
39.599	-0.016785	-0.059662	-0.20477	0.003967	-0.000305	-0.069885	0.5339	0.010986	-0.072937	0.009308	-0.1799	-0.005646	-0.11276	0.01297	0.15671	-0.010223	-0.00473	0.4155	-1.4595	0.075684	0.15442	-0.30655	0.82031	-0.037994	-0.66071	-0.035095	0.2269	-0.03952	-1.4262	-0.1976	-0.002441	-0.015259
39.6	0	-0.10483	-0.11154	-0.012207	0.005035	-0.058746	0.40802	0.013123	-0.088806	0.006256	0.006256	-0.005035	-0.11871	-0.040741	0.57205	-0.014343	0.028229	0.42694	-1.6216	0.13001	-0.022278	0.035095	0.84137	-0.06012	-0.61539	-0.02655	0.17471	0.039063	0.082397	-0.1445	-0.000153	-0.015411
39.601	-0.013428	-0.12894	-0.040436	-0.012817	0.006866	-0.056915	0.28351	0.017853	-0.097809	-0.015259	-0.012665	-0.009003	-0.041656	-0.005798	0.34668	-0.02182	0.04715	0.40329	-1.9125	0.13229	-0.047607	0.09613	0.85281	-0.1828	-0.36621	-0.005493	0.29785	-0.013885	-0.86594	-0.0737	-0.001526	-0.006256
39.602	-0.010376	-0.084076	-0.11398	-0.020447	0.007172	-0.075836	0.34988	0.016937	-0.095978	-0.003052	0.084229	-0.005951	-0.081482	-0.030212	-0.020752	-0.022888	0.049133	0.45258	-1.3905	0.065765	-0.034332	0.092621	0.69794	-0.22949	-0.21255	0.008698	0.24628	-0.03006	-1.4055	-0.27695	-0.001373	-0.010681
39.603	-0.004425	-0.040283	-0.070801	-0.023346	0.011292	-0.047455	0.42709	0.020294	-0.086517	0.007935	0.13901	-0.010376	-0.091248	-0.026855	-0.088806	-0.030212	-0.013275	0.42023	-0.76569	-0.055084	-0.09964	0.15198	0.35584	-0.11093	-0.17014	0.021362	0.088654	-0.032501	-0.12054	-0.15167	-0.002289	-0.00885
39.604	0	-0.011902	-0.033569	-0.021667	0.009003	-0.045319	0.51285	0.03006	-0.075684	0.014954	0.083466	-0.015106	-0.059204	0.018311	-0.16037	-0.027924	-0.05188	0.36667	-1.0393	-0.030823	0.029297	0.058899	0.32196	0.048218	-0.11337	0.012512	-0.039368	-0.11734	2.0541	0.085907	0.000763	-0.010681
39.605	-0.000153	-0.025024	0.011444	0.004272	0.005798	-0.061188	0.55313	0.031281	-0.060883	0.015869	0.049133	-0.010529	-0.014496	-0.012207	-0.22492	-0.021973	-0.021515	0.27283	-0.8609	-0.005188	0.0383	-0.096741	0.48614	0.05127	-0.071716	0.018921	-0.18219	-0.14175	0.95718	-0.19989	0	-0.006561
39.606	0.004425	-0.052185	0.043945	0.003967	0.011902	-0.050812	0.58991	0.034332	-0.05249	0.023193	0.036621	0.002136	-0.033875	0.012665	-0.10849	-0.030518	0.002136	0.1091	-1.035	-0.001984	0.020447	-0.20309	0.42999	0.17319	0.040283	0.023804	-0.24277	0.04776	1.0452	-0.2562	-0.000916	0.002594
39.607	0.010834	-0.045319	0.090179	0.001221	0.019836	-0.048065	0.43411	0.040894	-0.048065	0.0354	0.12833	0.001526	-0.11444	0.12619	0.45197	-0.018311	0.006104	0.14725	-1.7038	-0.045471	0.12726	-0.3418	0.2385	0.097961	0.031891	0.026245	-0.10391	0.02243	-0.52246	-0.17746	0.000305	0.000305
39.608	0.002441	-0.036469	0.11871	-0.010071	0.014038	-0.045166	0.29694	0.039368	-0.037384	0.054474	0.15427	0.001373	-0.13763	0.12772	0.22186	-0.013428	-0.011749	0.22705	-1.9388	0.046692	0.044556	-0.21881	0.21545	0.11749	-0.01709	0.015564	0.02243	-0.009613	-0.14877	-0.11917	0.001373	-0.003815
39.609	0.009308	0.018005	0.15228	-0.016022	0.014648	-0.041656	0.40604	0.027466	-0.035095	0.028992	0.10529	-0.00473	-0.084229	0.14908	0.46631	-0.002747	-0.02533	0.30701	-1.3893	0.071106	-0.032654	-0.13092	0.30273	0.26855	0.088501	-0.004425	0.070038	-0.027618	1.7259	0.002289	-0.001373	-0.014343
39.61	0.003357	-0.02243	0.19165	-0.003662	0.014343	-0.036316	0.44693	0.019989	-0.020142	0.011444	-0.020447	-0.006561	-0.010986	0.17639	-0.034027	-0.005798	-0.011292	0.2623	-0.89203	0.11124	-0.035858	-0.040741	0.15381	0.26733	0.29984	-0.014648	-0.043945	-0.021973	1.3307	0.14084	-0.000153	-0.013733
39.611	-0.009003	-0.024872	0.21698	0.006561	0.017853	-0.044098	0.36224	0.014038	-0.027771	-0.007935	-0.027008	0.001831	-0.018921	0.22537	0.44128	0.007477	0.012512	0.14969	-0.18906	0.12283	-0.060577	0.06485	0.28366	0.23621	0.36316	-0.003204	-0.00473	-0.022736	0.36224	0.017853	-0.002594	-0.014496
39.612	-0.000916	-0.073395	0.23148	0.002899	0.009918	-0.046539	0.28992	0.001526	-0.027924	-0.003357	0.033112	0.003815	-0.054932	0.15228	-0.49454	0.003204	0.028076	0.16342	-0.049896	0.10941	-0.098114	0.025024	0.46555	0.18051	0.24597	0.011597	0.14664	-0.025787	-0.61722	-0.27374	-0.001221	-0.009003
39.613	0.000305	-0.077515	0.22476	0.016785	0.011292	-0.054932	0.18005	-0.003815	-0.028229	0.045471	0.06134	0.00412	-0.047607	0.031738	-0.088196	-0.027618	0.032196	0.11108	-0.22522	0.022583	-0.10254	-0.023499	0.28839	0.057068	0.1532	0.000763	0.20111	-0.016174	-2.2453	-0.14648	0.00412	-0.007629
